PathFileType	4	(X/Y/Z)	s09c0402.trc
DataRate	CameraRate	NumFrames	NumMarkers	Units	OrigDataRate	OrigDataStartFrame	OrigNumFrames
200	200	4	50	mm	200	1750	2000
Frame#	Time	racr			lacr			c7			jug			rlel			rdr			llel			ldr			s2			lic			ric			lasi			rasi			rpsi			lpsi			rgt			lgt			rth1			rth2			rth3			rth4			rlfc			rmfc			rsh1			rsh2			rsh3			rsh4			rlmal			rmmal			rcal			rtoe			rmt5			lth1			lth2			lth4			lth3			llfc			lmfc			llmal			lmmal			lcal			lmt5			lsh1			lsh2			lsh3			lsh4			ltoe			SBIKE			LBIKE			RBIKE			
		X1	Y1	Z1	X2	Y2	Z2	X3	Y3	Z3	X4	Y4	Z4	X5	Y5	Z5	X6	Y6	Z6	X7	Y7	Z7	X8	Y8	Z8	X9	Y9	Z9	X10	Y10	Z10	X11	Y11	Z11	X12	Y12	Z12	X13	Y13	Z13	X14	Y14	Z14	X15	Y15	Z15	X16	Y16	Z16	X17	Y17	Z17	X18	Y18	Z18	X19	Y19	Z19	X20	Y20	Z20	X21	Y21	Z21	X22	Y22	Z22	X23	Y23	Z23	X24	Y24	Z24	X25	Y25	Z25	X26	Y26	Z26	X27	Y27	Z27	X28	Y28	Z28	X29	Y29	Z29	X30	Y30	Z30	X31	Y31	Z31	X32	Y32	Z32	X33	Y33	Z33	X34	Y34	Z34	X35	Y35	Z35	X36	Y36	Z36	X37	Y37	Z37	X38	Y38	Z38	X39	Y39	Z39	X40	Y40	Z40	X41	Y41	Z41	X42	Y42	Z42	X43	Y43	Z43	X44	Y44	Z44	X45	Y45	Z45	X46	Y46	Z46	X47	Y47	Z47	X48	Y48	Z48	X49	Y49	Z49	X50	Y50	Z50	
1750	8.7500	726.177534	1243.505691	-79.740212	708.290849	1216.243629	-456.682258	721.173027	1310.972128	-270.185750	713.442959	1175.552958	-265.049120	559.550204	1084.805464	46.157059	688.132912	907.921252	-37.400138	503.360051	1053.117848	-559.753237	676.372081	906.622911	-467.027518	241.318821	1179.086177	-205.172323	364.021376	1145.917251	-362.160631	392.340543	1131.357701	-69.510105	387.069271	1078.574542	-341.950732	413.671248	1069.335588	-94.492495	285.663147	1196.277404	-146.780228	274.993776	1211.865531	-255.743402	318.892756	991.991594	-31.436818	314.669073	1040.959514	-405.716477	361.876275	857.711738	-44.190910	406.017611	783.412345	-59.149943	400.256389	695.971822	-74.972607	434.858601	792.409065	-80.762896	414.968374	607.376683	-107.856420	384.048761	589.083908	-198.441662	366.192260	517.094174	-68.741843	365.373111	428.300827	-83.107816	321.149029	352.826012	-79.702430	387.661794	425.323871	-116.621661	285.990329	254.149277	-77.874932	287.213218	265.994288	-152.581826	205.331897	243.325484	-113.387791	451.491820	148.788825	-131.940248	371.708350	158.863773	-62.437893	409.234134	940.051452	-405.114877	485.933814	902.163238	-398.395092	508.973388	927.086492	-381.847806	535.829434	827.914452	-401.783330	575.423086	741.608553	-386.104968	575.916099	718.790644	-286.596161	239.004857	598.455607	-408.608427	255.837337	594.181119	-335.143509	159.798585	625.619455	-371.265278	247.066348	475.420807	-430.234906	488.359470	703.050871	-410.126432	418.313162	651.739378	-404.063919	330.064556	641.340506	-407.222433	429.099194	627.594587	-374.795372	321.208404	422.074191	-359.472301	-64.418305	852.649997	-240.080311	21.148088	84.030931	-442.043030	21.176576	83.918957	-43.893031	
1751	8.7550	725.189561	1244.881289	-82.769977	709.582089	1213.167653	-458.942716	721.621031	1309.967424	-273.900943	713.084729	1174.636409	-267.373459	560.611699	1085.925041	45.209590	688.318114	907.904102	-36.906670	502.547537	1051.890058	-560.479671	675.679311	907.232692	-468.320715	241.742039	1178.367823	-201.147120	361.456700	1146.833823	-361.466404	395.692784	1129.039232	-70.029330	384.644161	1079.858808	-344.861387	416.208129	1067.098013	-96.675267	286.730417	1195.504755	-143.135645	274.032612	1211.585844	-252.076437	322.570027	989.882268	-30.490179	311.004358	1041.525643	-403.105932	361.459581	856.051614	-44.009580	403.343339	780.243105	-59.440347	395.319981	693.428602	-75.042322	432.097342	789.004746	-81.497411	407.551015	604.801270	-108.071726	374.742607	586.803774	-198.596715	359.124445	514.813894	-68.811166	358.194595	426.004197	-82.992253	314.101086	350.368754	-79.233369	380.089828	423.048067	-116.860760	278.715222	252.374963	-77.015857	279.572714	263.526121	-151.939566	197.696041	242.892144	-112.758277	442.077159	143.287880	-131.816470	362.629738	154.639345	-62.364577	408.478120	943.001046	-403.861640	486.209696	907.108860	-398.064414	508.826782	932.679339	-381.972762	537.756170	834.071414	-402.747024	580.136261	748.289169	-386.787663	581.079248	725.709510	-286.901832	245.003591	602.035236	-408.193409	261.622440	598.377167	-334.879217	164.325372	627.447288	-371.324075	256.377342	479.886042	-430.386046	493.400206	709.394912	-410.167251	423.790905	657.542647	-404.071954	335.569190	646.486470	-406.976625	434.729516	633.261756	-374.766066	332.298441	428.923183	-359.706106	-64.445305	852.655484	-240.116163	21.153683	84.003272	-442.040043	21.173575	83.932250	-43.887387	
1752	8.7600	724.184803	1246.196095	-85.799638	710.845342	1210.353973	-461.286608	721.813783	1308.776285	-277.897099	712.810009	1173.526922	-269.996729	561.603483	1087.020572	44.327781	688.490338	907.898921	-36.376888	501.902026	1050.726460	-561.215629	675.445377	907.195136	-468.561191	242.002155	1178.029427	-196.950693	358.987171	1147.839414	-360.822596	398.979731	1126.890377	-70.648184	381.729017	1081.053265	-348.016175	418.381364	1064.938981	-98.830254	288.292010	1194.600676	-140.060786	273.403786	1211.382776	-248.497043	326.347579	988.019968	-29.600808	307.045267	1042.146915	-401.432452	361.156467	854.642256	-43.908443	400.930427	777.916726	-60.537756	390.609304	691.090666	-75.362536	429.066953	785.889791	-83.121402	400.641469	602.594917	-108.002665	364.465011	585.062500	-199.945034	352.346590	512.982761	-68.721819	351.204446	424.137228	-82.776356	307.043589	348.590502	-78.621682	372.642586	421.336422	-116.814571	271.023882	250.569656	-77.037299	271.785617	261.760057	-151.140639	189.963701	242.875596	-111.842364	431.396169	137.325947	-133.116501	353.345292	151.146776	-62.298967	407.749853	946.146342	-402.529513	486.423681	912.012411	-397.841847	508.626185	938.235423	-382.206411	540.039140	840.201933	-401.287401	584.645540	755.656557	-387.435841	586.037840	732.755368	-287.580640	250.854073	604.981247	-407.751462	267.448407	601.861619	-334.443332	168.850620	628.208776	-371.054018	265.702541	483.843962	-430.564458	498.119950	715.569528	-410.400237	429.051104	662.961944	-404.178691	341.017086	650.919259	-406.752959	440.268739	638.883399	-375.160418	343.360265	435.193994	-359.953639	-64.474339	852.626560	-240.112905	21.147621	83.999988	-442.033848	21.154046	83.915061	-43.891706	
1753	8.7650	723.117440	1247.297708	-88.730170	712.204379	1207.274691	-463.421072	722.052019	1307.414332	-281.848089	712.542596	1172.257327	-272.659793	562.418441	1088.054927	43.568058	688.680864	907.869586	-35.839012	501.162829	1049.729672	-561.983429	675.606782	906.552468	-467.788003	242.443605	1177.739261	-193.010128	356.529418	1148.947237	-360.146586	402.389160	1125.118703	-70.881574	380.179495	1081.615741	-347.766526	420.395133	1063.318534	-100.519064	291.455587	1192.914543	-138.864983	272.844154	1211.319050	-245.213808	330.331819	986.369108	-28.933148	303.118654	1042.761019	-399.938245	360.950642	853.776896	-43.778722	398.809441	775.979990	-60.717857	386.333311	689.479170	-74.762726	426.687016	783.443276	-83.834240	393.991130	600.896230	-108.011969	356.449767	583.478732	-199.861459	345.890646	511.721497	-68.559318	344.289668	422.778686	-82.524893	299.970304	347.411308	-77.829842	364.970473	419.803463	-116.666888	263.764440	250.297324	-75.505481	264.011991	260.620555	-150.240445	182.378869	243.443346	-110.642442	421.212164	132.720700	-133.597093	343.855428	148.113970	-62.315321	407.211331	949.131409	-401.927295	486.524419	916.933162	-397.822285	508.354871	943.725330	-382.547253	541.838898	846.093438	-401.142550	588.804590	762.702493	-388.302669	590.467582	740.218575	-287.936051	256.573648	606.950170	-407.362742	272.875210	604.694309	-334.154278	173.328022	627.924356	-370.887569	275.302955	487.163441	-430.734004	502.405528	721.591141	-410.725047	434.131337	667.975466	-404.423631	346.288716	654.766025	-406.673565	445.767340	643.881948	-375.580023	354.626905	441.282968	-360.241416	-64.515293	852.549607	-240.106138	21.122935	83.998224	-442.050961	21.149058	83.906628	-43.893076	
